<?xml version="1.0" encoding="utf-8"?>
<!-- Generator: Adobe Illustrator 22.1.0, SVG Export Plug-In . SVG Version: 6.00 Build 0)  -->
<svg version="1.1" id="Layer_1" xmlns="http://www.w3.org/2000/svg" xmlns:xlink="http://www.w3.org/1999/xlink" x="0px" y="0px"
	 viewBox="0 0 459 456" style="enable-background:new 0 0 459 456;" xml:space="preserve">
<style type="text/css">
	.st0{fill:#FFF355;stroke:#A37400;stroke-width:6;stroke-miterlimit:10;}
	.st1{fill:none;stroke:#FFFFFF;stroke-width:9;stroke-linecap:round;stroke-linejoin:round;stroke-miterlimit:10;}
	.st2{fill:none;stroke:#E9AB00;stroke-width:19;stroke-linecap:round;stroke-linejoin:round;stroke-miterlimit:10;}
	.st3{fill:#FF557B;stroke:#FF557B;stroke-width:6;stroke-miterlimit:10;}
	.st4{fill:#2BAA00;stroke:#2BAA00;stroke-width:6;stroke-miterlimit:10;}
	.st5{fill:#393F00;stroke:#393F00;stroke-width:6;stroke-miterlimit:10;}
	.st6{fill:#4A73FF;stroke:#4A73FF;stroke-width:6;stroke-miterlimit:10;}
	.st7{fill:#6AFF3F;stroke:#217503;stroke-width:6;stroke-miterlimit:10;}
	.st8{fill:none;stroke:#2BAA00;stroke-width:19;stroke-linecap:round;stroke-linejoin:round;stroke-miterlimit:10;}
	.st9{fill:#FF557B;stroke:#FF557B;stroke-width:6;stroke-linecap:round;stroke-miterlimit:10;}
	.st10{fill:#E9AB00;stroke:#E9AB00;stroke-width:6;stroke-linecap:round;stroke-miterlimit:10;}
	.st11{fill:#393F00;stroke:#393F00;stroke-width:6;stroke-linecap:round;stroke-miterlimit:10;}
	.st12{fill:#4A73FF;stroke:#4A73FF;stroke-width:6;stroke-linecap:round;stroke-miterlimit:10;}
</style>
<path class="st0" d="M133.1,229.6h28c0,0,15.9,20.9,46,20.9s65.1-21.7,65.1-67.1s-36-62.2-52.3-63.2s-129.3-1-143.6,0
	S20.5,138.9,22,188.3c1.5,49.3,43.4,62.2,62.7,62.2S127.2,240.3,133.1,229.6z"/>
<path class="st1" d="M147.1,104.5c0,0-1.2-12.9,23.3-23s73.4,5.8,96.1-3.6s23.6-30.2,23.6-30.2"/>
<line class="st2" x1="87.5" y1="210.2" x2="87.5" y2="159.9"/>
<line class="st2" x1="64" y1="185" x2="110.8" y2="185"/>
<circle class="st3" cx="208.4" cy="165.3" r="9.3"/>
<circle class="st4" cx="207.4" cy="204.3" r="9.3"/>
<circle class="st5" cx="188.4" cy="184.3" r="9.3"/>
<ellipse class="st6" cx="227.3" cy="185.3" rx="9.3" ry="9.3"/>
<path class="st7" d="M308.7,376.1l27.5-5.1c0,0,19.4,17.6,49,12.2s60-33.2,51.8-77.9s-46.7-54.6-63-52.6
	c-16.2,2-127.3,22.6-141.2,26.2s-51.4,28.6-41,76.9c10.5,48.2,54,53.2,73,49.7S304.8,387.7,308.7,376.1z"/>
<path class="st1" d="M299.6,250.5c0,0,1.3-23.1,15-49.5s46.6-19.9,59.2-44.4c12.7-24.5,6.4-55.2,6.4-55.2"/>
<line class="st8" x1="260.3" y1="365.3" x2="251.1" y2="315.9"/>
<line class="st8" x1="232.6" y1="344.9" x2="278.6" y2="336.3"/>
<circle class="st9" cx="371" cy="299.1" r="9.3"/>
<circle class="st10" cx="377.1" cy="337.7" r="9.3"/>
<circle class="st11" cx="354.8" cy="321.5" r="9.3"/>
<ellipse class="st12" cx="393.3" cy="315.3" rx="9.3" ry="9.3"/>
</svg>
