<?xml version="1.0" encoding="utf-8"?>
<!-- Generator: Adobe Illustrator 22.1.0, SVG Export Plug-In . SVG Version: 6.00 Build 0)  -->
<svg version="1.1" id="Layer_1" xmlns="http://www.w3.org/2000/svg" xmlns:xlink="http://www.w3.org/1999/xlink" x="0px" y="0px"
	 viewBox="0 0 48.8 45.9" style="enable-background:new 0 0 48.8 45.9;" xml:space="preserve">
<style type="text/css">
	.st0{fill:#0ABF0A;}
</style>
<g>
	<path class="st0" d="M40.1,0c0.1,0.1,0.1,0.1,0.2,0.2c0.8,0.5,1.3,1.4,2,2.1c0.2,0.3,0.5,0.6,0.7,0.9c0.6,0.6,1.1,1.3,1.8,1.8
		c0.4,0.4,0.7,0.8,1.1,1.2c0.5,0.5,1,0.9,1.5,1.3c0.1,0.1,0.3,0.2,0.4,0.4c0.3,0.3,0.8,0.5,0.7,0.9c-0.1,0.4-0.6,0.5-0.9,0.6
		c-0.1,0.1-0.3,0.1-0.4,0.2c-0.8,0.5-1.6,1-2.4,1.6c-0.6,0.5-1.2,0.8-1.8,1.4c-0.3,0.2-0.6,0.5-0.8,0.7c-0.9,0.7-1.7,1.6-2.5,2.4
		c-0.1,0.1-0.1,0.1-0.2,0.2c-2.8,2.6-5.2,5.6-7.6,8.6c-0.9,1-1.6,2.2-2.4,3.3c-0.1,0.2-0.3,0.3-0.4,0.5c-0.5,0.9-1.1,1.7-1.7,2.5
		c-0.3,0.3-0.5,0.8-0.8,1.1c-0.5,0.6-0.8,1.4-1.2,2c-0.5,0.8-1,1.5-1.4,2.4c-0.7,1.2-1.5,2.2-2.2,3.4c-0.2,0.3-0.4,0.5-0.5,0.9
		c-0.4,0.8-0.8,1.5-1.2,2.2c-0.6,1-1.2,1.9-1.6,3c-0.3,0.2-0.5,0.3-0.8,0.1c-0.5-0.6-1.1-1.2-1.5-1.8c-0.3-0.4-0.7-0.8-1-1.2
		c-0.5-0.5-1-1.1-1.5-1.7c-0.5-0.5-1-0.9-1.4-1.4c-0.4-0.5-0.9-0.9-1.4-1.3c-0.8-0.6-1.5-1.3-2.4-1.9c-0.9-0.8-1.8-1.5-2.8-2.1
		c-0.4-0.2-0.8-0.5-1.2-0.7C4,33.5,3.5,33.3,3,33c-0.8-0.4-1.7-0.5-2.3-1.2c-0.2-0.2-0.5,0-0.7-0.4c0.2-0.3,0.3-0.5,0.5-0.8
		c0,0,0,0,0,0c0.5-1.3,1.5-2,2.2-3.1c0.1-0.2,0.3-0.3,0.4-0.5c0.7-0.8,1.3-1.8,1.9-2.7c0.2-0.3,0.4-0.6,0.6-0.9
		c0.4-0.7,0.8-1.4,1.7-0.8C7.6,23,8,23.2,8.3,23.4c0.5,0.3,0.9,0.7,1.4,1c0.5,0.3,0.8,0.8,1.3,1.2c0.9,0.8,1.8,1.7,2.6,2.7
		c0.7,0.7,1.2,1.6,1.9,2.3c0.6,0.7,1,1.5,1.5,2.2c0.3,0.5,0.5,0.5,0.8,0c0.4-0.6,0.6-1.3,0.9-2c0.6-1,0.9-2.1,1.5-3.1
		c0.3-0.8,0.7-1.6,1.1-2.3c0.1-0.3,0.3-0.6,0.5-1c0.6-1,1.1-2,1.7-3c0.2-0.3,0.3-0.5,0.5-0.8c0.4-0.8,0.9-1.6,1.3-2.4
		c0.8-1.4,1.6-2.8,2.5-4.2c0.4-0.5,0.7-1,1-1.5c0.2-0.3,0.4-0.6,0.6-0.9c0.5-0.8,1-1.5,1.5-2.2c0.3-0.5,0.7-1,1-1.5
		c0.4-0.6,0.8-1.1,1.2-1.6c0.5-0.6,1-1.2,1.5-1.8c0.3-0.5,0.7-0.9,1.1-1.2c0.5-0.5,0.9-1,1.4-1.4c0.6-0.6,1.1-1.4,2-1.5
		C39.4,0.3,39.6-0.1,40.1,0z"/>
</g>
</svg>
