<?xml version="1.0" encoding="utf-8"?>
<!-- Generator: Adobe Illustrator 22.1.0, SVG Export Plug-In . SVG Version: 6.00 Build 0)  -->
<svg version="1.1" id="Layer_1" xmlns="http://www.w3.org/2000/svg" xmlns:xlink="http://www.w3.org/1999/xlink" x="0px" y="0px"
	 viewBox="0 0 1110 355" style="enable-background:new 0 0 1110 355;" xml:space="preserve">
<style type="text/css">
	.st0{fill:#2A2A2A;}
	.st1{font-family:'Ubuntu-Bold';}
	.st2{font-size:170px;}
	.st3{fill:#2A2A2A;stroke:#2A2A2A;stroke-width:2;stroke-miterlimit:10;}
	.st4{fill:#2A2A2A;stroke:#2A2A2A;stroke-width:2;stroke-linecap:round;stroke-linejoin:round;stroke-miterlimit:10;}
	.st5{fill:#FFFFFF;stroke:#2A2A2A;stroke-miterlimit:10;}
	.st6{fill:#2A2A2A;stroke:#FFFFFF;stroke-width:5;stroke-linecap:round;stroke-linejoin:round;stroke-miterlimit:10;}
	.st7{fill:#2A2A2A;stroke:#FFFFFF;stroke-width:3;stroke-linecap:round;stroke-linejoin:round;stroke-miterlimit:10;}
	.st8{fill:#2A2A2A;stroke:#2A2A2A;stroke-width:2;stroke-linecap:round;stroke-miterlimit:10;}
	.st9{fill:#2A2A2A;stroke:#2A2A2A;stroke-miterlimit:10;}
</style>
<text transform="matrix(1 0 0 1 -2.6025 249.4736)" class="st0 st1 st2">Officeroo</text>
<path class="st3" d="M871.7,242.5c18.3,0,45.4,7.6,50.4,1.3c5.1-6.3,6.8-11.4,12.6-20.6c5.8-9.3,11.6-10.3,13.8-15.7
	s1.9-7.6,1.9-7.6c0-7.4-4.7-6.7-6.3-6.8c-13.4-0.2-26.6,34.1-27.3,33.6c-0.8-0.5-1.7-2-3.8-5.4c-2-3.5-3.8-8.3-5.1-11.3"/>
<path class="st3" d="M871.9,242.5c-18.3,0.1-45.3,7.9-50.4,1.7c-5.1-6.3-6.8-11.4-12.6-20.6s-11.7-10.3-13.9-15.7
	c-2.2-5.4-1.9-7.6-1.9-7.6c0-7.4,4.6-6.8,6.3-6.8c13.4-0.3,26.7,34,27.5,33.4c0.8-0.5,1.7-2,3.8-5.4c2-3.5,3.8-8.3,5-11.4"/>
<path id="Tail" class="st4" d="M887,244c0,0,0,66.4-55.9,66.4c0,0-14-0.3-18.5-5.2c0,0,58.1,4.7,43.4-61.1"/>
<path class="st3" d="M907.9,210c0,0-17.5-59.2-16.5-62.6s8.8-3.1,13.4-4.4c4.6-1.3,23.8-0.8,23.8-26.7c0,0-0.2-4.8-1.7-8.3
	c-1.6-3.6-16.1-1.8-19.8-3.2c-3.6-1.4-19-16-35.9-16c-11.7,0-13.4,4.4-19.2,4.5c-6,0-25.1-31.5-26.5-31.5c-1.9,0-3.9,5.2-3.9,14.6
	c0,6.8,7.9,25.6,25.1,25.7c0,0,1.8,10.8,1.5,24.8c-0.2,14-9.6,76-12.6,83.4"/>
<path class="st3" d="M851.4,88.9c0,0-2.5-18-2.4-24.7s1.4-20.6,10.6-20.9c3.6-0.1,8.3,4.6,8.3,12.7
	C867.9,64.1,851.7,77.1,851.4,88.9z"/>
<ellipse class="st5" cx="882.6" cy="116.9" rx="4.3" ry="5"/>
<path class="st6" d="M854.4,175.1c0,0,14.5,11.3,10.9,18.2s-14.5,2.5-14.5,2.5"/>
<path class="st7" d="M903.7,143.8c0,0-5.8-2-5-7.8"/>
<g id="Bottom_1_">
	<path class="st3" d="M1024.3,204.3c18.3,0,45.4,7.6,50.4,1.3c5.1-6.3,6.8-11.4,12.6-20.6c5.8-9.3,11.6-10.3,13.8-15.7
		c2.2-5.4,1.9-7.6,1.9-7.6c0-7.4-4.7-6.7-6.3-6.8c-13.4-0.2-26.6,34.1-27.3,33.6c-0.8-0.5-1.7-2-3.8-5.4c-2-3.5-3.8-8.3-5.1-11.3"/>
	<path class="st3" d="M1024.4,204.3c-18.3,0.1-45.3,7.9-50.4,1.7c-5.1-6.3-6.8-11.4-12.6-20.6c-5.8-9.2-11.7-10.3-13.9-15.7
		c-2.3-5.4-1.9-7.6-1.9-7.6c0-7.4,4.6-6.8,6.3-6.8c13.4-0.3,26.7,34,27.5,33.4c0.8-0.5,1.7-2,3.8-5.4c2-3.5,3.8-8.3,5-11.4"/>
</g>
<path id="Tail_1_" class="st4" d="M1007.9,206.1c15.5,65.6-42.7,61.7-42.7,61.7c4.6,4.8,18.5,4.9,18.5,4.9
	c55.8-0.9,55.1-67.2,55.1-67.2"/>
<path class="st8" d="M1055.9,150.1c1.2,7.4,2.8,14.7,4.7,22"/>
<path class="st3" d="M988.3,171.8c5.9-19.6,11.2-39.4,16.5-59.5c0-0.9,0.4-2.2,0-3.1c-1.5-3.5-5.3-3.5-8.3-3.9
	c-7.9-0.9-16.2-1.3-22.6-7.5c-6.8-6.6-8.3-18-5.3-27.2c5.6-5.7,13.9-2.2,20.7-3.9c5.6-3.9,18.4-11.4,19.2-11.8
	c10.9-6.1,22.9-5.3,33.9,0c4.9,0.4,7.9-3.9,11.3-7.5c3-3.5,4.9-7.5,7.9-11c3-4.4,5.3-9.6,9.4-12.3c0.4-0.4,1.9,0.4,2.3,1.3
	c1.9,5.7,2.6,12.3,0.8,18c-0.4,0.9-0.8,1.8-1.1,3.1c-4.1,10.5-13.2,16.7-22.6,17.5c-5.3,21-0.4,43.4,2.4,64.4"/>
<path class="st3" d="M1044.8,50.6c0,0,2.5-18,2.4-24.7c-0.1-6.8-1.4-20.6-10.6-20.9c-3.6-0.1-8.3,4.6-8.3,12.7
	S1044.5,38.8,1044.8,50.6z"/>
<ellipse class="st5" cx="1013.5" cy="78.7" rx="4.3" ry="5"/>
<path class="st3" d="M993.8,148.6c0,0-13.8-12.5-9.8-19c4-6.6,14.6-1.4,14.6-1.4"/>
<path class="st8" d="M1056,149.1c0,0,14.6-11.1,11.1-18c-3.6-6.9-14.5-2.8-14.5-2.8"/>
<path class="st7" d="M993.6,105.5c0,0,5.8-2,5-7.8"/>
<path class="st6" d="M889,175.4c0,0-15.6,9.2-12.7,16.5c2.9,7.4,14.1,4.6,14.1,4.6"/>
<g>
	<path class="st9" d="M844.2,218c4.1,1.2,8.4,2,12.7,2.3"/>
	<g>
		<path class="st9" d="M843.8,219.4c4.3,1.3,8.7,2,13.1,2.3c1.9,0.1,1.9-2.9,0-3c-4.2-0.3-8.3-1-12.3-2.2
			C842.7,216,841.9,218.9,843.8,219.4L843.8,219.4z"/>
	</g>
</g>
<g>
	<path class="st9" d="M842.5,213.3c3,0.4,5.2,2.8,7.2,5c6.9,7.8,13.8,15.6,20.7,23.3c1.5-3.5,4.7-5.9,7.7-8.2
		c7.9-6.1,15.2-12.8,22-20.1c-15.7,2.3-31.8,1.6-47.2-2.1c2.2,2.6,4.4,5.3,6.6,7.9c2.5,3,5.2,6.2,8.9,7.6s8.7,0.2,10.1-3.5"/>
	<g>
		<path class="st9" d="M840.5,220.6c2.2,0.6,3.7,2.9,5.2,4.5c2.2,2.4,4.3,4.9,6.5,7.3c4.3,4.9,8.6,9.7,12.9,14.6
			c3.1,3.5,9.7,2.6,11.8-1.5c2.6-5.2,9-8.5,13.3-12.2c5.3-4.6,10.4-9.4,15.2-14.6c5.5-5.9-0.2-13.5-7.3-12.5
			c-14.4,2-29.1,1.2-43.3-2.1c-7.6-1.8-12,6.9-7.3,12.5c5.2,6.2,10.1,14,17.9,17.1c7.1,2.8,15.9,0.5,19.5-6.5
			c4.4-8.6-8.5-16.2-13-7.6c-0.2,0.3,0.5,0.4-0.5,0.4c-1.7-0.1-3.3-2.1-4.3-3.2c-3.2-3.4-6.1-7.2-9-10.7c-2.4,4.2-4.9,8.4-7.3,12.5
			c17,4,34,4.5,51.2,2.1c-2.4-4.2-4.9-8.4-7.3-12.5c-5.2,5.6-10.7,10.8-16.5,15.7c-5.2,4.3-11.2,7.9-14.3,14.1
			c3.9-0.5,7.9-1,11.8-1.5c-5.2-5.8-10.4-11.7-15.5-17.5c-4.5-5.1-8.7-11-15.7-12.8C835.1,203.8,831.1,218.2,840.5,220.6
			L840.5,220.6z"/>
	</g>
</g>
<g>
	<path class="st9" d="M876.3,241.2"/>
	<g>
		<path class="st9" d="M876.3,248.7c9.7,0,9.7-15,0-15S866.6,248.7,876.3,248.7L876.3,248.7z"/>
	</g>
</g>
<g>
	<path class="st9" d="M999.7,134.9"/>
	<g>
		<path class="st9" d="M999.7,142.4c9.7,0,9.7-15,0-15C990.1,127.4,990,142.4,999.7,142.4L999.7,142.4z"/>
	</g>
</g>
<g>
	<path class="st9" d="M999.2,145.5"/>
	<g>
		<path class="st9" d="M999.2,153c9.7,0,9.7-15,0-15S989.5,153,999.2,153L999.2,153z"/>
	</g>
</g>
<g>
	<path class="st9" d="M1050.1,145.5"/>
	<g>
		<path class="st9" d="M1050.1,153c9.7,0,9.7-15,0-15S1040.4,153,1050.1,153L1050.1,153z"/>
	</g>
</g>
<g>
	<path class="st9" d="M1050.4,135.7c-16.2,7.4-30.9,18-43,31.1c-3.7,4-7.7,8.4-13.1,8.8c1.2-1.7,2.4-3.4,3.6-5.2
		c-0.1,4,2.4,7.5,4.7,10.8c6.3,8.5,12.8,17.3,21.6,23.2c5.2-7.8,11.8-14.6,19.5-20c3.1-2.2,6.6-4.4,7.9-7.9c1.2-3,0.5-6.4-0.1-9.6
		c-0.9-4.2-1.7-8.4-2.6-12.5c-0.3-1.7-1.1-3.7-2.8-3.8c-0.7,0-1.3,0.3-1.9,0.6c-11.1,6.2-21.6,13.6-31.3,21.9
		c-1.2,1-2.4,2.2-2.5,3.7c-0.1,1.2,0.5,2.4,1.2,3.4c2,3.2,4.4,6.1,7.2,8.6c0.6,0.5,1.2,1.1,2,1.2c1.7,0.3,3-1.4,3.9-2.9
		c4.2-6.5,10-12,16.7-15.9c2.4-1.4,5.4-4,3.9-6.4c-1.4-2.3-4.9-1-7.1,0.5c-6.4,4.4-12.8,8.7-19.2,13.1"/>
	<g>
		<path class="st9" d="M1046.6,129.2c-10.5,4.8-20.2,10.9-29.2,18.1c-4.4,3.5-8.5,7.2-12.4,11.1c-2.6,2.6-6.6,9.1-10.6,9.6
			c2.2,3.8,4.3,7.5,6.5,11.3c1.2-1.7,2.4-3.4,3.6-5.2c-4.7-1.3-9.3-2.5-14-3.8c0.5,8.8,6.2,15.3,11.4,22c5.4,7,11.3,13.3,18.6,18.4
			c3.5,2.4,8.1,0.4,10.3-2.7c4.7-6.9,10.6-12.9,17.4-17.7c7.2-5.1,12.5-10.8,11.5-20.3c-0.5-4.5-1.6-8.9-2.5-13.3
			c-0.8-4-1.4-8.1-4.4-11c-7.1-6.9-17,1.4-23.2,5.5c-7.7,5-16,10.5-22.4,17c-7.4,7.5-2.8,15.6,3,22.3c2.5,2.9,5.7,6.2,9.7,6.7
			c4.8,0.6,8.3-2.2,11-5.9c2.2-3.1,4.4-5.9,7.2-8.5c3.1-2.8,6.7-4.6,9.9-7.2c3.7-3,6.2-7.4,4.8-12.3c-1.3-4.5-5.5-7.4-10.1-7.3
			c-5,0.1-9.1,3.4-13,6c-4.8,3.3-9.6,6.5-14.4,9.8c-7.9,5.4-0.4,18.4,7.6,13c4-2.7,8-5.4,12-8.2c2.1-1.4,6.5-5.7,8.9-5.5
			c-1.3-0.3-2.5-0.7-3.8-1c-0.5-0.7-0.9-1.4-1.4-2.1c0-1.3,0-2.7,0-4c-0.2,0.9-3.9,2.6-4.8,3.2c-2.2,1.6-4.3,3.3-6.3,5.1
			c-1.7,1.6-3.3,3.3-4.8,5.1c-1.1,1.3-2.9,5-4.4,5.9c1.3-0.3,2.5-0.7,3.8-1c2.4,1.6,2.7,1.6,0.9,0c-0.8-0.8-1.5-1.5-2.2-2.3
			c-0.2-0.2-2.9-3.4-2.7-3.7c-0.3,2.4,0.2,2.6,1.6,0.8c0.9-0.8,1.9-1.6,2.8-2.3c1.6-1.3,3.3-2.6,4.9-3.9c3.4-2.5,6.9-5,10.5-7.3
			c2.9-1.9,7-5.3,10.3-6c-1.3,0-2.7,0-4,0c-0.9-0.8-1.8-1.7-2.7-2.5c0.2,0.6,0.3,1.3,0.4,1.9c0.1,1.2,0.5,2.4,0.7,3.6
			c0.5,2.7,1.1,5.4,1.6,8.1c0.4,2,0.9,3.9-0.2,5.7c-1,1.5-3.3,2.7-4.8,3.7c-8.5,6.1-15.6,13.5-21.5,22.2c3.4-0.9,6.8-1.8,10.3-2.7
			c-5.2-3.6-9.5-8.4-13.4-13.3c-2.9-3.6-8.9-9.4-9.2-14.2c-0.4-7.7-9.7-9.9-14-3.8c-1.2,1.7-2.4,3.4-3.6,5.2c-3,4.3,0.9,12,6.5,11.3
			c12.7-1.6,19.5-13,28.5-20.8c9.4-8.2,20-14.8,31.3-20C1062.9,138.2,1055.3,125.2,1046.6,129.2L1046.6,129.2z"/>
	</g>
</g>
</svg>
