<?xml version="1.0" encoding="utf-8"?>
<!-- Generator: Adobe Illustrator 22.1.0, SVG Export Plug-In . SVG Version: 6.00 Build 0)  -->
<svg version="1.1" id="Layer_1" xmlns="http://www.w3.org/2000/svg" xmlns:xlink="http://www.w3.org/1999/xlink" x="0px" y="0px"
	 viewBox="0 0 415 316" style="enable-background:new 0 0 415 316;" xml:space="preserve">
<style type="text/css">
	.st0{display:none;}
	.st1{display:inline;fill:#2EC4FF;}
	.st2{fill:none;stroke:#52C0ED;stroke-width:8;stroke-miterlimit:10;}
	.st3{fill:#FF1543;stroke:#7F003D;stroke-width:8;stroke-miterlimit:10;}
	.st4{fill:none;stroke:#7F003D;stroke-width:5;stroke-linecap:round;stroke-linejoin:round;stroke-miterlimit:10;}
	.st5{fill:#FFB235;stroke:#B55A00;stroke-width:4;stroke-miterlimit:10;}
	.st6{fill:#52C0ED;stroke:#1300AA;stroke-width:8;stroke-miterlimit:10;}
	.st7{fill:none;stroke:#1300AA;stroke-width:5;stroke-linecap:round;stroke-linejoin:round;stroke-miterlimit:10;}
	.st8{fill:none;stroke:#1300AA;stroke-width:4;stroke-linecap:round;stroke-miterlimit:10;}
	.st9{fill:none;stroke:#FF1543;stroke-width:3;stroke-linecap:round;stroke-miterlimit:10;}
</style>
<g id="Roo" class="st0">
	<path class="st1" d="M39.8,391.6c1.3-2.4,2.8-2.5,5-2c2.6,0.6,5.3,1.1,7.9,1.3c4.5,0.3,9,0.3,13.6,0.5c9.5,0.5,18.5-1.2,27.6-2.7
		c1.5-0.2,3-0.5,4.6-0.6c6.9-0.5,12.9-2.8,18.8-5.4c3.7-1.7,7.9-3,11.1-5.1c6.1-4,12.5-8.1,17.3-12.9c8.1-8,14.7-16.8,20.3-26
		c1.7-2.7,5.1-4.9,6.4-7.9c2.5-5.6,6.9-10.7,7.8-16.7c0.3-1.9,1.6-3.7,2-5.7c0.7-3.5,0.9-7.1,1.4-10.6c0.2-1.3,1.1-2.5,1.3-3.8
		s0.1-2.7,0.1-4c0.2-6,1.1-12.1,0.6-18.1c-0.9-11.5-2.6-23-3.9-34.5c-0.2-2.1-0.3-4.3-0.4-6.4c-0.1-1.8-0.9-2.7-3.8-2.4
		c-9,0.9-18.3,0.9-27.1,2.5c-11.8,2.1-23.8,2.8-35.7,3.8c-5,0.4-9.9,1.3-14.8,2c-5.7,0.9-10.7-0.9-13.6-5.1c-3-4.6-5.5-9.4-8.6-13.9
		c-2.9-4.2-6.4-8.1-9.5-12.1c-4.6-6-8.9-12.1-13.5-18c-1.9-2.5-3.9-4.9-6.2-7.1c-8.4-8.2-17.3-16-25.2-24.4
		c-4.4-4.6-8.2-9.9-10.4-15.3c-2.8-6.8-1.6-13.8,3.1-20.2c2.9-3.9,7.1-5.9,13.2-3.8c0.7,0.3,1.6,0.4,2.4,0.3
		c6.5-0.2,10.1,3.2,13.6,6.3c6,5.3,11.8,10.9,17.2,16.6c3.5,3.7,6.2,8,9.2,12c7.2,9.4,14.4,18.7,21.5,28.1c2.4,3.1,4.7,6.3,7.4,9.9
		c2.9-5.7,6-10.8,8-16.2c3.1-8.5,5.3-17.3,8.2-25.9c3.3-9.4,7.4-18.7,10.4-28.2c3.3-10.4,5.5-21,8.5-31.5
		c3.9-13.6,8.3-27.2,12.1-40.9c1.7-6.4,1.9-13.1,3.5-19.5c2.6-10.1,3.2-20.3,3.6-30.5c0.4-10.8,1.9-21.5,2.3-32.2
		c0.3-7.2-0.6-14.4-0.8-21.6c-0.3-7.3-0.5-14.6-0.8-21.8c-0.2-4.9-0.7-9.9-1.1-14.6c-4.7-0.8-9.6-1.1-14-2.4
		c-6.8-2-14.1-3.9-19.7-7.2c-8.2-4.8-14.5-11.1-19.5-18.1c-9.5-13.2-11.9-27.2-8.7-41.9c0.7-3,0.5-6,1-9c0.4-2.9,1.1-5.8,2-8.6
		c0.2-0.5,2.3-1.2,3.1-1c1.6,0.5,3,1.4,4.1,2.4c4.2,4,8.4,8.1,12.4,12.3c6.6,6.7,12.9,13.6,19.5,20.2c4.4,4.4,9.4,8.4,13.9,12.8
		c4.1,3.9,7.8,8,11.7,12c0.1,0.1,0.2,0.3,0.3,0.5c4.3,6,9.3,7.2,17.5,4.1c13.1-5,27-7.2,41.8-6.4c4.5,0.3,9.1,0.3,13.6,0.6
		c9.6,0.6,17.8,4.2,26.2,7.3c6.6,2.4,13.1,4.9,19.5,7.7c2.6,1.1,4.7,2.9,7,4.4c4.2,2.7,8.3,5.5,12.7,8.1c4.1,2.4,8.2,5,12.9,6.5
		c5.1,1.7,10.9,2.6,16.5,3.3c9.4,1.1,19,1.4,28.4,2.8c5.1,0.7,11.2,1.4,13.7,5.6c1.3,2.3,1.8,5,2,7.6c0.4,4.4,1,8.9,0.3,13.3
		c-0.8,5.3-2.5,10.6-4.3,15.9c-1.3,3.6-2.9,7.3-5.3,10.6c-4.9,7-11.4,13.2-20.9,17c-6.1,2.4-12.7,4.1-19.2,5.6
		c-7.9,1.9-15.9,3.4-24,4.8c-4.2,0.7-8.5,0.9-12.8,1.3c-0.8,0.1-1.7,0-2.5,0c-7.8,0.3-8.6,1-7.2,6.6c3.3,13.3,6.4,26.5,10,39.8
		c1.7,6.4,4.5,12.7,6.6,19.1c1.3,3.9,1.9,8,3.5,11.9c5.5,13.1,7.3,26.8,11.5,40.1c0.8,2.5,1.8,5,2.6,7.5c0.8,2.9,1.2,5.9,2.3,8.7
		c2.4,6.2,5.1,12.4,7.6,18.6c3,7.4,5.7,14.8,10.7,21.7c2.7,3.7,4.4,7.8,6.7,11.7c1.1,1.8,2.7,3.5,4.1,5.2c0.4,0,0.8,0,1.2,0
		c2.5-4.9,5-9.8,7.5-14.7c2.2-4.3,4-8.8,6.8-12.8c4.8-6.9,9.9-13.8,15.8-20.2c6.2-6.7,13.1-13,20.4-19c3-2.4,7.7-3.7,11.6-5.5
		c1.9-0.8,3.9-1.7,6-2.2c6.6-1.6,11.9-0.3,16.1,3.8c3.1,3,4.5,6.1,3.5,9.9c-1,4-1.2,8.1-2,12.1c-1.6,7.5-7,13.6-13.5,19.3
		c-6.4,5.7-13.4,11.1-19.1,17.1c-5.3,5.5-9.4,11.7-13.8,17.7c-7,9.4-13.8,18.8-20.6,28.2c-1,1.3-2,2.6-2.9,3.9
		c-2.4,3.5-6.8,5-11.7,5.1c-7.4,0.2-14.9,0.1-22.3-0.3c-18.1-1.1-36.1-2.5-54.2-3.8c-0.5,0-0.9,0.1-1.8,0.2
		c-0.5,5.3-1.3,10.6-1.6,15.9c-0.4,9.8-1,19.5-3.5,29.1c-2.4,9.3-4.1,18.7-6.8,28c-1.6,5.8-3.9,11.6-6.8,17.1
		c-3.6,6.9-7.7,13.8-12.5,20.2c-4.4,5.8-10.2,11-15.1,16.6c-5.3,6-13.3,10.1-19.9,15.2c-4.4,3.4-9,6.7-13.7,9.9
		c-1.9,1.3-4.3,2.1-6.6,3.1c-7,3-14,6-21.2,8.8c-6.3,2.5-12.6,4.9-19.1,6.9c-14.5,4.6-29.7,6.7-45.6,5.8c-5.6-0.3-11.2,0.2-16.8,0.3
		c-2.9,0.1-5.7-0.1-7.8-1.9c-0.6-0.5-1.6-0.8-2.5-1c-4.8-1.3-9.8-2.2-14.3-3.8C50,396.7,45,394,39.8,391.6z M155.6-97
		c0.4,0.1,0.8,0.1,1.2,0.2c0.5,4.7,1.1,9.4,1.4,14.2c0.3,3.7,0.1,7.5,0.4,11.2c0.5,7.5,1.3,15,1.7,22.5c0.3,4.3,0,8.7,0.1,13
		c0,2,0.4,4.1,0.3,6.1c-0.4,4.2-5.4,53.2-6.2,56.9c-1.2,5.7-2.8,11.3-4,17c-1.3,5.7-1.9,11.6-3.5,17.2c-3.3,11.6-7.1,23.2-10.5,34.8
		c-1.4,4.6-2.2,9.3-3.7,13.8c-2.7,8.4-5.6,16.7-8.4,25.1c-1.5,4.5-2.6,9.1-4,13.7c-0.9,3.1-2.6,6.2-2.8,9.3
		c-0.3,4.4-2.4,8.4-4.1,12.4c-2.1,4.8-4.5,9.4-6.6,14.2c-1.5,3.3-2.6,6.7-3.9,10.1c-0.3,0.1-0.7,0.1-1,0.2c-0.9-1.3-1.7-2.6-2.6-3.8
		c-3.7-5-7.5-10-11.2-15c-6.2-8.2-12.6-16.4-18.8-24.7c-7.5-10-15.4-19.8-26.7-27.8c-5.2-3.7-11.4-5.8-18.6-5.5
		c-1.8,0.1-4.2,1.1-5.3,2.2c-5.5,5.7-6.1,12.2-4.6,18.9c0.5,2.4,1.8,4.8,3.4,6.9c3,3.8,6.5,7.3,9.8,11c2.6,2.8,5.1,5.7,8,8.4
		c3.3,3,6.9,5.8,10.3,8.7c5.5,4.8,10.3,9.8,13.8,15.7c3,5.1,7.4,9.6,11,14.6c5.6,7.8,11,15.7,16.4,23.7c3.2,4.8,6.6,6.4,13.7,5.5
		c5.4-0.6,10.6-2.1,15.9-2.6c9.3-0.9,18.8-1.3,28.2-2.2c5.8-0.5,11.5-1.6,17.2-2.1c11.3-1,22.7-1.8,34-2.6c3.9-0.3,7.9-0.6,11.8-0.6
		c9.6,0,19.1,0.2,28.7,0.4c7.1,0.1,14.2,0.1,21.3,0.5c6.3,0.4,12.5,1.3,18.8,1.8c9.8,0.8,19.6,1.6,29.4,2.3
		c14.3,0.9,28.6,2.1,43,1.3c4.3-0.2,8-1.3,10.2-4.2c2.1-2.7,4-5.4,6-8.1c4.2-6,8.2-12,12.5-17.9c3.9-5.4,7.6-10.8,12-16
		c4.6-5.5,9.7-10.7,14.9-15.8c4.3-4.2,9.6-7.9,13.9-12.1c7.6-7.3,9.2-16.2,11.2-24.9c0.6-2.6,0-5.6-1.4-8
		c-3.2-5.3-12.6-7.5-20.2-4.8c-8,2.8-14.9,6.8-20.1,12.3c-1.9,2-3.8,4.1-6.2,5.8c-5.3,3.5-8.5,8.1-11.6,12.6
		c-2.7,4-4.9,8.2-7.4,12.3c-4.1,6.8-8.4,13.4-12.4,20.2c-1.8,3.1-2.9,6.4-4.5,9.5c-0.9,1.8-2.1,2.7-4.1,0.5c-1.9-2.1-4.4-3.9-6-6.2
		c-3-4.4-5.7-9-8.1-13.6c-3.7-7.2-7.3-14.4-10.5-21.7c-2.6-5.9-4.7-12-6.5-18c-2.5-8.3-4.4-16.7-6.9-25c-3.1-10.1-6.6-20.1-9.9-30.2
		c-2.2-6.8-4.1-13.7-6.1-20.6c-2.1-7.2-4.4-14.3-6.4-21.5c-1.8-6.2-3.4-12.5-5.1-18.8c-1.3-4.8-2.5-9.6-3.7-14.4
		c-0.6-2.6,0.8-4.5,3.5-4.7c4-0.2,8.1-0.2,12.2-0.6c7.9-0.8,15.8-1.5,23.5-2.7c6.7-1.1,13.2-2.7,19.8-4.3c12.2-3,22.4-8.5,28.5-16.7
		c4.9-6.7,7.6-14.4,10.1-21.8c2.5-7.5,1.3-15.2,0.4-22.8c-0.4-3.7-2.1-6.9-7.2-8.1c-5.5-1.2-11.2-2.3-16.9-2.8
		c-9.7-0.8-19.4-1-28.9-3.1c-11-2.4-18.6-8.2-27-13.2c-8.5-5.1-16.7-10.3-26.9-13.6c-7-2.2-13.6-5-20.6-7.1c-3.3-1-7.2-1.1-10.9-1.3
		c-7.6-0.5-15.2-1.4-22.7-0.9c-7.4,0.5-14.6,2.3-21.8,4c-4.6,1.1-8.8,2.9-13.2,4.5c-2.3,0.8-7.3,0.4-9.3-0.9
		c-6.1-3.9-10.5-8.8-14.7-13.9c-2.2-2.6-5-4.9-7.4-7.4c-6.3-6.6-12.4-13.3-18.8-19.9c-3.2-3.3-6.8-6.4-10.2-9.5
		c-5-4.7-10.1-9.4-15.4-14.4c-0.7,1.9-1.5,3.3-1.7,4.7c-0.9,5.9-2,11.9-2.4,17.8c-0.4,6.1-0.8,12.3,0.2,18.3c1.4,8.3,6,16,12.8,22.5
		c7.1,6.8,14.6,13.7,26.7,16.1c0.6,0.1,1.2,0.6,1.8,0.8c3.2,0.9,6.5,1.9,9.8,2.7c1.3,0.3,3,0,4.1,0.5
		C152.2-95.1,153.9-95.4,155.6-97z M52.8,394.1c0,0.4,0,0.7,0,1.1c7.4,3.5,16,4.9,24.3,6.2c8.2,1.3,16.8,1.5,25.3,1.8
		c10.2,0.3,20.4-0.2,30.2-3c7-2,14-3.7,21.1-5.6c0.4-0.1,0.9-0.3,1.3-0.5c4-1.8,7.9-3.6,12-5.3c4.3-1.8,9.1-3.2,13.1-5.4
		c6.7-3.8,12.7-8.1,19.2-12.1c9.1-5.7,18.1-11.4,24.9-18.8c4.9-5.3,10.6-10.4,14.6-16.1c4.6-6.6,8.2-13.6,11.5-20.6
		c5-10.6,8.7-21.6,10.4-32.8c1.6-10.1,2.6-20.2,3.6-30.4c0.7-7.6,1-15.2,1.5-22.8c0.1-1.6-0.5-2.5-2.9-2.5
		c-5.1-0.1-10.2-0.3-15.3-0.5c-1.9-0.1-3.8-0.3-5.7-0.3c-13.4,0.2-26.7,0.4-40,0.6c-5,0.1-10,0.1-15,0.2c-1.7,0-2.6,0.4-2.5,1.9
		c0.4,4.4,0.7,8.8,1,13.3c0.9,13,1.8,26.1,2.5,39.1c0.7,12.4-1.7,24.6-6.7,36.5c-2.2,5.3-4.6,10.7-7.8,15.7
		c-4.4,6.8-9.8,13.2-14.7,19.7c-6.5,8.8-13.9,17.1-24.7,23.3c-5.1,2.9-9.3,6.4-15.5,8.5c-9.2,3.2-19.1,4.1-28.6,6.1
		c-2.7,0.6-5.6,0.3-8.4,0.5c-7.4,0.4-14.8,0.9-22.1,1.4C57,393.3,54.9,393.8,52.8,394.1z"/>
	<path class="st1" d="M167.2-123.1c-0.9-2.4-1.8-4-2.1-5.6c-1.4-7.5-3.2-15.1-3.7-22.6c-0.7-9.5-0.7-19-0.1-28.5
		c0.3-5.4,2.2-10.8,3.7-16.2s3.5-10.8,5.1-16.2c1.1-3.6,4.7-5.8,8.4-7.6c5.9-2.9,16.7-1.5,22,1.9c10.3,6.7,12.4,15.4,9.8,24.6
		c-1.2,4.3-4.7,8.2-7.5,12.2c-3.2,4.4-6.6,8.7-10.2,13c-10.1,12.3-14.9,26.2-21,39.7C170.8-126.7,169.1-125.3,167.2-123.1z
		 M167.4-128.2c0.3,0,0.7,0,1,0.1c1.9-3.6,3.7-7.2,5.6-10.7c3.5-6.9,6.4-14,10.6-20.6c6.8-10.5,14.4-20.7,21.9-31
		c5.4-7.5,3.1-18.7-5.7-25.1c-2.5-1.8-6.5-3.3-9.9-3.4c-7.6-0.2-13.7,2.8-16.7,8c-2.9,4.8-4.8,10-6.7,15.1c-3.5,9.5-4.6,19.2-4.5,29
		c0.1,10.1,1.1,20.2,2,30.2C165.2-133.8,166.5-131,167.4-128.2z"/>
	<path class="st1" d="M198.2,69c0.5,1.3,1,1.8,1,2.4c-0.4,9.5-0.8,19-5.1,28c-1.5,3.1-4.7,6-7.8,8.4c-3.4,2.6-11,2.1-14.8-0.6
		c-4.2-2.9-7.5-6.1-10-10.1c-2.2-3.4-2.7-6.7-3.6-10.1c-0.1-0.4,0.2-0.8,1.1-1.3c0.3,0.7,0.9,1.4,1,2.2c0.5,5.2,3.5,9.6,8.2,13.4
		c0.8,0.6,1.4,1.4,2.1,2.2c0.9,1,1.7,2.6,2.9,2.8c3.1,0.6,6.3,0.6,9.5,0.7c0.8,0,1.8-0.8,2.5-1.4c8.5-7.6,11.1-16.6,11.2-26.2
		c0-2.6,0-5.1,0.3-7.7C196.5,71,197.3,70.3,198.2,69z"/>
	<path class="st1" d="M235.5,68.2c0.6,1.4,1.6,2.8,1.9,4.2c1.3,7.9,2,15.9,3.9,23.7c0.8,3.2,3.7,6.2,6.2,9.1
		c3.1,3.5,10.2,3.1,14.2,0.1c7.5-5.8,9.3-13.4,13.3-20.4c0.5-0.9,1-1.7,1.6-2.5c0.4,0.1,0.8,0.2,1.2,0.3c-0.8,2-1.4,4.1-2.4,6
		c-1.8,3.5-3.7,6.9-5.6,10.3c-2.3,4.2-5.6,7.7-11.1,10c-5.9,2.4-12.1,1.1-14.9-3.4c-4.2-6.7-6.4-13.7-7-21
		c-0.3-4.3-1.6-8.6-2.4-12.9c-0.2-1-0.2-2.1-0.3-3.1C234.5,68.4,235,68.3,235.5,68.2z"/>
	<path class="st1" d="M213.6-71.4c-0.1-4.2,2.6-6.8,7.4-9.1c4.1-1.9,6.9-0.8,10.5,0.3c3.6,1.1,4.7,3.2,5.5,5.7
		c1.4,4.8-1,8.8-4.7,12.4c-2.6,2.6-13.1,2-15.2-0.8c-1.9-2.6-2.9-5.4-4.4-8.2C213-71.2,213.3-71.3,213.6-71.4z M234.7-71.2
		c0-4.4-0.3-4.9-3.4-6.9c-2.9-1.8-9.3-1.9-11.3-0.2c-3,2.5-4.1,5.4-4.1,8.7c-0.1,3.4,3,5.1,6.2,6.5c1.7,0.7,5.1,0.9,6.4,0.1
		C232.2-65,235.8-67.6,234.7-71.2z"/>
</g>
<path class="st2" d="M260,230.8"/>
<path class="st2" d="M260,230.8"/>
<path class="st3" d="M248,230.8c0,0,0.4,11.2,7.4,15s17.1,0,17.1,0s15.8-35.4,20.9-43.7c5.1-8.2,13.5-11.6,19.4-12.4
	c6-0.8,53.2,5.8,74.7-37.8c14.5-29.4,20.3-83.3-24.2-108.1s-86.6,1-105.9,37.6s-0.5,74.7,8.9,85.6s4.9,16.3,3.5,21.8
	C268.3,194.2,248,230.8,248,230.8z"/>
<line class="st4" x1="276.7" y1="164.2" x2="308.4" y2="180.9"/>
<path class="st2" d="M310.5,196.1"/>
<circle class="st5" cx="165.3" cy="34" r="20.1"/>
<path class="st6" d="M159.1,295.9c0,0,10,5.1,16.7,0.9s8.4-14.9,8.4-14.9s-23.1-31.1-27.8-39.6c-4.6-8.5-3.5-17.5-1.3-23
	c2.2-5.6,31.1-43.5,3.7-83.6c-18.5-27.1-62.6-58.5-106.1-31.9s-41.6,76-19.1,110.7s64.9,37.1,79,34.2c14.1-2.8,16.6,3.7,20.7,7.6
	C137.1,260.3,159.1,295.9,159.1,295.9z"/>
<line class="st7" x1="115.1" y1="238.3" x2="145.2" y2="218.8"/>
<path class="st8" d="M190.5,65.4c0,0,23.2-9,15.5-31.9"/>
<path class="st9" d="M205.7,74.6c0,0,23.2-9,15.5-31.9"/>
</svg>
