<?xml version="1.0" encoding="utf-8"?>
<!-- Generator: Adobe Illustrator 22.1.0, SVG Export Plug-In . SVG Version: 6.00 Build 0)  -->
<svg version="1.1" id="Layer_1" xmlns="http://www.w3.org/2000/svg" xmlns:xlink="http://www.w3.org/1999/xlink" x="0px" y="0px"
	 viewBox="0 0 506 418" style="enable-background:new 0 0 506 418;" xml:space="preserve">
<style type="text/css">
	.st0{fill:#EC6AFF;stroke:#740B87;stroke-width:4;stroke-linecap:round;stroke-miterlimit:10;}
	.st1{fill:#27BD00;stroke:#1C7204;stroke-width:5;stroke-linecap:round;stroke-miterlimit:10;}
	.st2{fill:#52C0ED;stroke:#005E9F;stroke-width:5;stroke-linecap:round;stroke-miterlimit:10;}
	.st3{fill:#FFFFFF;stroke:#52C0ED;stroke-width:3;stroke-linecap:round;stroke-miterlimit:10;}
	.st4{fill:#FF9815;stroke:#AA5C07;stroke-width:5;stroke-linecap:round;stroke-miterlimit:10;}
	.st5{fill:#FF0047;stroke:#892142;stroke-width:5;stroke-linecap:round;stroke-miterlimit:10;}
	.st6{fill:#FFFFFF;stroke:#FF0047;stroke-width:3;stroke-linecap:round;stroke-miterlimit:10;}
	.st7{fill:#001A55;stroke:#001A55;stroke-width:5;stroke-linecap:round;stroke-miterlimit:10;}
	.st8{fill:#FFFFFF;stroke:#001A55;stroke-width:3;stroke-linecap:round;stroke-miterlimit:10;}
	.st9{fill:#FFFFFF;stroke:#001A55;stroke-width:4;stroke-linecap:round;stroke-miterlimit:10;}
	.st10{fill:#52C0ED;}
	.st11{font-family:'ArialRoundedMTBold';}
	.st12{font-size:40px;}
	.st13{fill:#FF0047;}
	.st14{font-size:39.9968px;}
	.st15{fill:#FFFFFF;stroke:#27BD00;stroke-width:3;stroke-linecap:round;stroke-miterlimit:10;}
	.st16{fill:#27BD00;}
	.st17{font-size:40.0024px;}
	.st18{fill:#FFFFFF;stroke:#EC6AFF;stroke-width:3;stroke-linecap:round;stroke-miterlimit:10;}
	.st19{fill:#EC6AFF;}
	.st20{fill:#FFFFFF;stroke:#FF9815;stroke-width:3;stroke-linecap:round;stroke-miterlimit:10;}
	.st21{fill:#FF9815;}
	.st22{font-size:39.9972px;}
</style>
<ellipse class="st0" cx="368.4" cy="306.8" rx="59.8" ry="58.6"/>
<ellipse class="st1" cx="287" cy="196.6" rx="59.8" ry="58.6"/>
<ellipse class="st2" cx="146.4" cy="211.5" rx="59.8" ry="58.6"/>
<ellipse transform="matrix(0.6542 -0.7563 0.7563 0.6542 -106.4002 167.6982)" class="st3" cx="130.2" cy="200.2" rx="29.5" ry="25.6"/>
<ellipse class="st4" cx="90.6" cy="336.5" rx="59.8" ry="58.6"/>
<ellipse class="st5" cx="204.2" cy="86.4" rx="59.8" ry="58.6"/>
<ellipse transform="matrix(0.5978 -0.8016 0.8016 0.5978 -13.3573 190.0099)" class="st6" cx="182.7" cy="108.3" rx="23.2" ry="29.5"/>
<g>
	<g>
		<ellipse class="st7" cx="229.8" cy="323.4" rx="59.8" ry="58.6"/>
	</g>
	<ellipse class="st8" cx="256.4" cy="324.2" rx="25.6" ry="29.5"/>
	<ellipse class="st9" cx="254.2" cy="316.2" rx="6.2" ry="6"/>
	<ellipse class="st9" cx="262.4" cy="330.2" rx="9.1" ry="9"/>
</g>
<text transform="matrix(0.807 0.5905 -0.5905 0.807 110.9625 204.2618)" class="st10 st11 st12">5</text>
<text transform="matrix(0.6806 -0.7326 0.7326 0.6806 184.3526 129.3248)" class="st13 st11 st14">1</text>
<ellipse transform="matrix(0.6542 -0.7563 0.7563 0.6542 -56.4904 308.0124)" class="st15" cx="308.6" cy="215.8" rx="29.5" ry="25.6"/>
<text transform="matrix(0.6965 0.7176 -0.7176 0.6965 290.8953 218.7118)" class="st16 st11 st17">9</text>
<ellipse transform="matrix(0.7966 -0.6045 0.6045 0.7966 -97.7278 296.5454)" class="st18" cx="391.8" cy="293.5" rx="25.6" ry="29.5"/>
<text transform="matrix(0.8076 -0.5897 0.5897 0.8076 390.7268 311.3381)" class="st19 st11 st12">2</text>
<ellipse transform="matrix(0.2049 -0.9788 0.9788 0.2049 -288.5524 371.721)" class="st20" cx="84.5" cy="363.5" rx="23.2" ry="29.5"/>
<text transform="matrix(0.2238 -0.9746 0.9746 0.2238 96.1115 379.0707)" class="st21 st11 st22">3</text>
</svg>
