<?xml version="1.0" encoding="utf-8"?>
<!-- Generator: Adobe Illustrator 22.1.0, SVG Export Plug-In . SVG Version: 6.00 Build 0)  -->
<svg version="1.1" id="Layer_1" xmlns="http://www.w3.org/2000/svg" xmlns:xlink="http://www.w3.org/1999/xlink" x="0px" y="0px"
	 viewBox="0 0 792 789" style="enable-background:new 0 0 792 789;" xml:space="preserve">
<style type="text/css">
	.st0{fill:#FFFFFF;stroke:#000000;stroke-width:3;stroke-miterlimit:10;}
	.st1{fill:none;stroke:#000000;stroke-width:8;stroke-miterlimit:10;}
	.st2{fill:none;stroke:#000000;stroke-width:5;stroke-linecap:round;stroke-linejoin:round;stroke-miterlimit:10;}
	.st3{fill:none;stroke:#000000;stroke-width:4;stroke-miterlimit:10;}
	.st4{stroke:#000000;stroke-width:5;stroke-linecap:round;stroke-miterlimit:10;}
	.st5{fill:#FFFFFF;stroke:#000000;stroke-width:3;stroke-linecap:round;stroke-miterlimit:10;}
	.st6{fill:none;stroke:#000000;stroke-width:4;stroke-linecap:round;stroke-miterlimit:10;}
	.st7{fill:none;stroke:#231F20;stroke-width:6;stroke-linecap:round;stroke-linejoin:round;stroke-miterlimit:10;}
	.st8{fill:none;stroke:#000000;stroke-width:3;stroke-linecap:round;stroke-miterlimit:10;}
	.st9{fill:none;stroke:#000000;stroke-width:10;stroke-linecap:round;stroke-linejoin:round;stroke-miterlimit:10;}
	.st10{fill:none;stroke:#000000;stroke-width:7;stroke-linecap:round;stroke-miterlimit:10;}
	.st11{fill:none;stroke:#000000;stroke-width:13;stroke-linecap:round;stroke-miterlimit:10;}
	.st12{stroke:#000000;stroke-miterlimit:10;}
	.st13{font-family:'Ubuntu-Bold';}
	.st14{font-size:102.2504px;}
</style>
<path class="st0" d="M215.5,44v129.3c0,23.3-18.9,42.3-42.3,42.3H43.7c-23.3,0-42.3-18.9-42.3-42.3V44c0-23.3,18.9-42.3,42.3-42.3
	h129.5C196.6,1.7,215.5,20.6,215.5,44z"/>
<g>
	<path class="st1" d="M69.6,178.1"/>
	<path class="st1" d="M69.6,178.1"/>
	<path class="st1" d="M69.6,178.1c0,0,0.3,8.4,5.3,11.2s12.4,0,12.4,0s11.4-26.5,15.1-32.7s9.7-8.7,14.1-9.3s38.5,4.3,54-28.2
		c10.5-22,14.7-62.3-17.5-80.8S90.4,39,76.5,66.4s-0.4,55.9,6.4,64s3.6,12.2,2.5,16.3C84.2,150.8,69.6,178.1,69.6,178.1z"/>
	<line class="st2" x1="90.3" y1="128.3" x2="113.2" y2="140.8"/>
	<path class="st1" d="M106,152.2"/>
	<ellipse class="st3" cx="52.5" cy="143.3" rx="14.5" ry="15"/>
</g>
<path class="st0" d="M215.5,331v129.3c0,23.3-18.9,42.3-42.3,42.3H43.7c-23.3,0-42.3-18.9-42.3-42.3V331c0-23.3,18.9-42.3,42.3-42.3
	h129.5C196.6,288.7,215.5,307.6,215.5,331z"/>
<g>
	<ellipse class="st4" cx="107" cy="404.1" rx="59.8" ry="58.6"/>
	<ellipse class="st5" cx="133.6" cy="406.9" rx="25.6" ry="29.5"/>
	<ellipse class="st6" cx="131.3" cy="398.9" rx="6.2" ry="6"/>
	<ellipse class="st6" cx="139.5" cy="412.9" rx="9.1" ry="9"/>
</g>
<path class="st0" d="M501.5,44v129.3c0,23.3-18.9,42.3-42.3,42.3H329.7c-23.3,0-42.3-18.9-42.3-42.3V44c0-23.3,18.9-42.3,42.3-42.3
	h129.5C482.6,1.7,501.5,20.6,501.5,44z"/>
<g>
	<ellipse class="st7" cx="370" cy="46.5" rx="12.8" ry="14.5"/>
	<path class="st7" d="M380.9,151.8h-18.5c-2.8,0-6.2-20-8.5-21.1c-5.2-2.6-9.6-8.9-9.6-14.8V84.2c0-8.5,7.3-15.3,16.4-15.3h18.5
		c9,0,16.4,6.9,16.4,15.3v31.7c0,6.1-2.3,12-7.8,14.5C385.6,131.4,383.5,151.8,380.9,151.8z"/>
	<rect x="352.4" y="159.8" class="st7" width="38.3" height="23.9"/>
	<ellipse class="st7" cx="423.1" cy="160.3" rx="13.3" ry="12.4"/>
	<line class="st8" x1="363.6" y1="46.2" x2="373" y2="41.1"/>
	<line class="st9" x1="308" y1="90.5" x2="360.2" y2="90.5"/>
	<line class="st9" x1="399" y1="90.5" x2="476.7" y2="90.5"/>
</g>
<g>
	<path class="st0" d="M503.5,615v129.3c0,23.3-18.9,42.3-42.3,42.3H331.7c-23.3,0-42.3-18.9-42.3-42.3V615
		c0-23.3,18.9-42.3,42.3-42.3h129.5C484.6,572.7,503.5,591.6,503.5,615z"/>
</g>
<g>
	<path class="st10" d="M386.6,736.7h18.8c0,0,10.7,14,30.9,14c20.2,0,43.8-14.5,43.8-44.9s-24.2-41.6-35.1-42.3s-86.9-0.7-96.5,0
		S311,676.1,312,709.1s29.2,41.6,42.1,41.6S382.7,743.9,386.6,736.7z"/>
	<path class="st10" d="M396.1,653c0,0-0.6-8.7,12.9-15.4s40.6,3.8,53.1-2.4c12.6-6.3,13-20.2,13-20.2"/>
	<line class="st11" x1="356" y1="723.7" x2="356" y2="690.1"/>
	<line class="st11" x1="340.2" y1="706.9" x2="371.6" y2="706.9"/>
	<ellipse class="st10" cx="437.2" cy="693.7" rx="6.3" ry="6.3"/>
	<ellipse class="st10" cx="436.5" cy="719.8" rx="6.3" ry="6.3"/>
	<ellipse class="st10" cx="423.8" cy="706.4" rx="6.3" ry="6.3"/>
	<ellipse class="st10" cx="450" cy="707.1" rx="6.3" ry="6.3"/>
</g>
<path class="st0" d="M789.5,330v129.3c0,23.3-18.9,42.3-42.3,42.3H617.7c-23.3,0-42.3-18.9-42.3-42.3V330
	c0-23.3,18.9-42.3,42.3-42.3h129.5C770.6,287.7,789.5,306.6,789.5,330z"/>
<g>
	<g>
		<path class="st2" d="M634,318v49.4c0,0,0.3,9,10.6,9s-1.9,97.2-1.9,97.2s0,7.3,11.3,7.3"/>
		<path class="st2" d="M674.6,318l0.3,49.4c0,0-0.2,9-10.5,9s2.5,97.2,2.5,97.2s0,7.3-11.2,7.3"/>
		<line class="st2" x1="647.8" y1="318" x2="647.8" y2="345.9"/>
		<line class="st2" x1="661.4" y1="318" x2="661.4" y2="345.9"/>
	</g>
	<path class="st2" d="M726.7,474.2l0.4-148.4c0,0-1.9-6.8-14.3-6.8s-14.3,6.3-14.3,6.3v79.5c0,0,2.6,4.8,10.1,5
		c7.5,0.3,1.1,64.4,1.1,64.4s1.5,4.2,9,4.2S726.7,474.2,726.7,474.2z"/>
</g>
<path class="st0" d="M790.5,615v129.3c0,23.3-18.9,42.3-42.3,42.3H618.7c-23.3,0-42.3-18.9-42.3-42.3V615
	c0-23.3,18.9-42.3,42.3-42.3h129.5C771.6,572.7,790.5,591.6,790.5,615z"/>
<path class="st1" d="M635.7,681.3c0,0,3.6,8.9,45,9.3c41.4,0.5,43.8-7,44.2-9.3s-19.7-7.5-44.6-7.5
	C655.4,673.8,636.9,676.6,635.7,681.3z"/>
<path class="st1" d="M725,681.3c0,0,0.1,1.9,0.1,5.1c0,1.2-0.1,2.6-0.2,4.1c-1.1,16.8-7.8,50.8-44.1,50.5c-48.3-0.5-45-59.7-45-59.7
	"/>
<path class="st1" d="M718.4,717.7c0,0,21.4-1.4,22.6-19.1c1.2-17.7-16-12.1-16-12.1"/>
<path class="st3" d="M625.1,756.3c0,0-5.8,4.7,56.1,4.7s55.3-5.6,55.7-4.7c0.4,0.9,7.8-3.7-56.1-5.1
	C617,749.7,625.1,756.3,625.1,756.3z"/>
<path class="st6" d="M659,593.6c0,0,12.3,11.7,12.3,21.5s-14.7,14-15.6,25.2c-0.8,11.2,3.7,15.9,4.9,17.3"/>
<path class="st6" d="M684.4,599.2c0,0,5.7,7.9,5.7,14s-9,16.3-11.9,24.7s0,12.6,0,12.6"/>
<path class="st6" d="M704.9,610.9c0,0,4.5,12.6,0,18.7c-4.5,6.1-10.6,8.9-11.5,16.8c-0.8,7.9,3.7,11.2,3.7,11.2"/>
<text transform="matrix(0.9888 0 0 1 374 432.5547)" class="st12 st13 st14">?</text>
</svg>
