<?xml version="1.0" encoding="utf-8"?>
<!-- Generator: Adobe Illustrator 22.1.0, SVG Export Plug-In . SVG Version: 6.00 Build 0)  -->
<svg version="1.1" id="Layer_1" xmlns="http://www.w3.org/2000/svg" xmlns:xlink="http://www.w3.org/1999/xlink" x="0px" y="0px"
	 viewBox="0 0 1238.4 768" style="enable-background:new 0 0 1238.4 768;" xml:space="preserve">
<style type="text/css">
	.st0{display:none;}
	.st1{display:inline;fill:#2EC4FF;}
	.st2{fill:none;stroke:#52C0ED;stroke-width:8;stroke-linecap:round;stroke-linejoin:round;stroke-miterlimit:10;}
	.st3{fill:#FFFFFF;stroke:#52C0ED;stroke-width:8;stroke-linecap:round;stroke-linejoin:round;stroke-miterlimit:10;}
	.st4{fill:none;stroke:#090A0A;stroke-width:8;stroke-linecap:round;stroke-linejoin:round;stroke-miterlimit:10;}
	.st5{fill:none;stroke:#231F20;stroke-width:8;stroke-linecap:round;stroke-linejoin:round;stroke-miterlimit:10;}
	.st6{fill:#FFFFFF;stroke:#000000;stroke-width:8;stroke-linecap:round;stroke-linejoin:round;stroke-miterlimit:10;}
</style>
<g id="Roo" class="st0">
	<path class="st1" d="M443.7,646.8c1.3-2.4,2.8-2.5,5-2c2.6,0.6,5.3,1.1,7.9,1.3c4.5,0.3,9,0.3,13.6,0.5c9.5,0.5,18.5-1.2,27.6-2.7
		c1.5-0.2,3-0.5,4.6-0.6c6.9-0.5,12.9-2.8,18.8-5.4c3.7-1.7,7.9-3,11.1-5.1c6.1-4,12.5-8.1,17.3-12.9c8.1-8,14.7-16.8,20.3-26
		c1.7-2.7,5.1-4.9,6.4-7.9c2.5-5.6,6.9-10.7,7.8-16.7c0.3-1.9,1.6-3.7,2-5.7c0.7-3.5,0.9-7.1,1.4-10.6c0.2-1.3,1.1-2.5,1.3-3.8
		s0.1-2.7,0.1-4c0.2-6,1.1-12.1,0.6-18.1c-0.9-11.5-2.6-23-3.9-34.5c-0.2-2.1-0.3-4.3-0.4-6.4c-0.1-1.8-0.9-2.7-3.8-2.4
		c-9,0.9-18.3,0.9-27.1,2.5c-11.8,2.1-23.8,2.8-35.7,3.8c-5,0.4-9.9,1.3-14.8,2c-5.7,0.9-10.7-0.9-13.6-5.1c-3-4.6-5.5-9.4-8.6-13.9
		c-2.9-4.2-6.4-8.1-9.5-12.1c-4.6-6-8.9-12.1-13.5-18c-1.9-2.5-3.9-4.9-6.2-7.1c-8.4-8.2-17.3-16-25.2-24.4
		c-4.4-4.6-8.2-9.9-10.4-15.3c-2.8-6.8-1.6-13.8,3.1-20.2c2.9-3.9,7.1-5.9,13.2-3.8c0.7,0.3,1.6,0.4,2.4,0.3
		c6.5-0.2,10.1,3.2,13.6,6.3c6,5.3,11.8,10.9,17.2,16.6c3.5,3.7,6.2,8,9.2,12c7.2,9.4,14.4,18.7,21.5,28.1c2.4,3.1,4.7,6.3,7.4,9.9
		c2.9-5.7,6-10.8,8-16.2c3.1-8.5,5.3-17.3,8.2-25.9c3.3-9.4,7.4-18.7,10.4-28.2c3.3-10.4,5.5-21,8.5-31.5
		c3.9-13.6,8.3-27.2,12.1-40.9c1.7-6.4,1.9-13.1,3.5-19.5c2.6-10.1,3.2-20.3,3.6-30.5c0.4-10.8,1.9-21.5,2.3-32.2
		c0.3-7.2-0.6-14.4-0.8-21.6c-0.3-7.3-0.5-14.6-0.8-21.8c-0.2-4.9-0.7-9.9-1.1-14.6c-4.7-0.8-9.6-1.1-14-2.4
		c-6.8-2-14.1-3.9-19.7-7.2c-8.2-4.8-14.5-11.1-19.5-18.1c-9.5-13.2-11.9-27.2-8.7-41.9c0.7-3,0.5-6,1-9c0.4-2.9,1.1-5.8,2-8.6
		c0.2-0.5,2.3-1.2,3.1-1c1.6,0.5,3,1.4,4.1,2.4c4.2,4,8.4,8.1,12.4,12.3c6.6,6.7,12.9,13.6,19.5,20.2c4.4,4.4,9.4,8.4,13.9,12.8
		c4.1,3.9,7.8,8,11.7,12c0.1,0.1,0.2,0.3,0.3,0.5c4.3,6,9.3,7.2,17.5,4.1c13.1-5,27-7.2,41.8-6.4c4.5,0.3,9.1,0.3,13.6,0.6
		c9.6,0.6,17.8,4.2,26.2,7.3c6.6,2.4,13.1,4.9,19.5,7.7c2.6,1.1,4.7,2.9,7,4.4c4.2,2.7,8.3,5.5,12.7,8.1c4.1,2.4,8.2,5,12.9,6.5
		c5.1,1.7,10.9,2.6,16.5,3.3c9.4,1.1,19,1.4,28.4,2.8c5.1,0.7,11.2,1.4,13.7,5.6c1.3,2.3,1.8,5,2,7.6c0.4,4.4,1,8.9,0.3,13.3
		c-0.8,5.3-2.5,10.6-4.3,15.9c-1.3,3.6-2.9,7.3-5.3,10.6c-4.9,7-11.4,13.2-20.9,17c-6.1,2.4-12.7,4.1-19.2,5.6
		c-7.9,1.9-15.9,3.4-24,4.8c-4.2,0.7-8.5,0.9-12.8,1.3c-0.8,0.1-1.7,0-2.5,0c-7.8,0.3-8.6,1-7.2,6.6c3.3,13.3,6.4,26.5,10,39.8
		c1.7,6.4,4.5,12.7,6.6,19.1c1.3,3.9,1.9,8,3.5,11.9c5.5,13.1,7.3,26.8,11.5,40.1c0.8,2.5,1.8,5,2.6,7.5c0.8,2.9,1.2,5.9,2.3,8.7
		c2.4,6.2,5.1,12.4,7.6,18.6c3,7.4,5.7,14.8,10.7,21.7c2.7,3.7,4.4,7.8,6.7,11.7c1.1,1.8,2.7,3.5,4.1,5.2c0.4,0,0.8,0,1.2,0
		c2.5-4.9,5-9.8,7.5-14.7c2.2-4.3,4-8.8,6.8-12.8c4.8-6.9,9.9-13.8,15.8-20.2c6.2-6.7,13.1-13,20.4-19c3-2.4,7.7-3.7,11.6-5.5
		c1.9-0.8,3.9-1.7,6-2.2c6.6-1.6,11.9-0.3,16.1,3.8c3.1,3,4.5,6.1,3.5,9.9c-1,4-1.2,8.1-2,12.1c-1.6,7.5-7,13.6-13.5,19.3
		c-6.4,5.7-13.4,11.1-19.1,17.1c-5.3,5.5-9.4,11.7-13.8,17.7c-7,9.4-13.8,18.8-20.6,28.2c-1,1.3-2,2.6-2.9,3.9
		c-2.4,3.5-6.8,5-11.7,5.1c-7.4,0.2-14.9,0.1-22.3-0.3c-18.1-1.1-36.1-2.5-54.2-3.8c-0.5,0-0.9,0.1-1.8,0.2
		c-0.5,5.3-1.3,10.6-1.6,15.9c-0.4,9.8-1,19.5-3.5,29.1c-2.4,9.3-4.1,18.7-6.8,28c-1.6,5.8-3.9,11.6-6.8,17.1
		c-3.6,6.9-7.7,13.8-12.5,20.2c-4.4,5.8-10.2,11-15.1,16.6c-5.3,6-13.3,10.1-19.9,15.2c-4.4,3.4-9,6.7-13.7,9.9
		c-1.9,1.3-4.3,2.1-6.6,3.1c-7,3-14,6-21.2,8.8c-6.3,2.5-12.6,4.9-19.1,6.9c-14.5,4.6-29.7,6.7-45.6,5.8c-5.6-0.3-11.2,0.2-16.8,0.3
		c-2.9,0.1-5.7-0.1-7.8-1.9c-0.6-0.5-1.6-0.8-2.5-1c-4.8-1.3-9.8-2.2-14.3-3.8C453.8,651.9,448.8,649.2,443.7,646.8z M559.4,158.2
		c0.4,0.1,0.8,0.1,1.2,0.2c0.5,4.7,1.1,9.4,1.4,14.2c0.3,3.7,0.1,7.5,0.4,11.2c0.5,7.5,1.3,15,1.7,22.5c0.3,4.3,0,8.7,0.1,13
		c0,2,0.4,4.1,0.3,6.1c-0.4,4.2-5.4,53.2-6.2,56.9c-1.2,5.7-2.8,11.3-4,17c-1.3,5.7-1.9,11.6-3.5,17.2c-3.3,11.6-7,23.2-10.5,34.8
		c-1.4,4.6-2.2,9.3-3.7,13.8c-2.7,8.4-5.6,16.7-8.4,25.1c-1.5,4.5-2.6,9.1-4,13.7c-0.9,3.1-2.6,6.2-2.8,9.3
		c-0.3,4.4-2.4,8.4-4.1,12.4c-2.1,4.8-4.5,9.4-6.6,14.2c-1.5,3.3-2.6,6.7-3.9,10.1c-0.3,0.1-0.7,0.1-1,0.2c-0.9-1.3-1.7-2.6-2.6-3.8
		c-3.7-5-7.5-10-11.2-15c-6.2-8.2-12.6-16.4-18.8-24.7c-7.5-10-15.4-19.8-26.7-27.8c-5.2-3.7-11.4-5.8-18.6-5.5
		c-1.8,0.1-4.2,1.1-5.3,2.2c-5.5,5.7-6.1,12.2-4.6,18.9c0.5,2.4,1.8,4.8,3.4,6.9c3,3.8,6.5,7.3,9.8,11c2.6,2.8,5.1,5.7,8,8.4
		c3.3,3,6.9,5.8,10.3,8.7c5.5,4.8,10.3,9.8,13.8,15.7c3,5.1,7.4,9.6,11,14.6c5.6,7.8,11,15.7,16.4,23.7c3.2,4.8,6.6,6.4,13.7,5.5
		c5.4-0.6,10.6-2.1,15.9-2.6c9.3-0.9,18.8-1.3,28.2-2.2c5.8-0.5,11.5-1.6,17.2-2.1c11.3-1,22.7-1.8,34-2.6c3.9-0.3,7.9-0.6,11.8-0.6
		c9.6,0,19.1,0.2,28.7,0.4c7.1,0.1,14.2,0.1,21.3,0.5c6.3,0.4,12.5,1.3,18.8,1.8c9.8,0.8,19.6,1.6,29.4,2.3
		c14.3,0.9,28.6,2.1,43,1.3c4.3-0.2,8-1.3,10.2-4.2c2.1-2.7,4-5.4,6-8.1c4.2-6,8.2-12,12.5-17.9c3.9-5.4,7.6-10.8,12-16
		c4.6-5.5,9.7-10.7,14.9-15.8c4.3-4.2,9.6-7.9,13.9-12.1c7.6-7.3,9.2-16.2,11.2-24.9c0.6-2.6,0-5.6-1.4-8
		c-3.2-5.3-12.6-7.5-20.2-4.8c-8,2.8-14.9,6.8-20.1,12.3c-1.9,2-3.8,4.1-6.2,5.8c-5.3,3.5-8.5,8.1-11.6,12.6
		c-2.7,4-4.9,8.2-7.4,12.3c-4.1,6.8-8.4,13.4-12.4,20.2c-1.8,3.1-2.9,6.4-4.5,9.5c-0.9,1.8-2.1,2.7-4.1,0.5c-1.9-2.1-4.4-3.9-6-6.2
		c-3-4.4-5.7-9-8.1-13.6c-3.7-7.2-7.3-14.4-10.5-21.7c-2.6-5.9-4.7-12-6.5-18c-2.5-8.3-4.4-16.7-6.9-25c-3.1-10.1-6.6-20.1-9.9-30.2
		c-2.2-6.8-4.1-13.7-6.1-20.6c-2.1-7.2-4.4-14.3-6.4-21.5c-1.8-6.2-3.4-12.5-5.1-18.8c-1.3-4.8-2.5-9.6-3.7-14.4
		c-0.6-2.6,0.8-4.5,3.5-4.7c4-0.2,8.1-0.2,12.2-0.6c7.9-0.8,15.8-1.5,23.5-2.7c6.7-1.1,13.2-2.7,19.8-4.3c12.2-3,22.4-8.5,28.5-16.7
		c4.9-6.7,7.6-14.4,10.1-21.8c2.5-7.5,1.3-15.2,0.4-22.8c-0.4-3.7-2.1-6.9-7.2-8.1c-5.5-1.2-11.2-2.3-16.9-2.8
		c-9.7-0.8-19.4-1-28.9-3.1c-11-2.4-18.6-8.2-27-13.2c-8.5-5.1-16.7-10.3-26.9-13.6c-7-2.2-13.6-5-20.6-7.1c-3.3-1-7.2-1.1-10.9-1.3
		c-7.6-0.5-15.2-1.4-22.7-0.9c-7.4,0.5-14.6,2.3-21.8,4c-4.6,1.1-8.8,2.9-13.2,4.5c-2.3,0.8-7.3,0.4-9.3-0.9
		c-6.1-3.9-10.5-8.8-14.7-13.9c-2.2-2.6-5-4.9-7.4-7.4c-6.3-6.6-12.4-13.3-18.8-19.9c-3.2-3.3-6.8-6.4-10.2-9.5
		c-5-4.7-10.1-9.4-15.4-14.4c-0.7,1.9-1.5,3.3-1.7,4.7c-0.9,5.9-2,11.9-2.4,17.8c-0.4,6.1-0.8,12.3,0.2,18.3c1.4,8.3,6,16,12.8,22.5
		c7.1,6.8,14.6,13.7,26.7,16.1c0.6,0.1,1.2,0.6,1.8,0.8c3.2,0.9,6.5,1.9,9.8,2.7c1.3,0.3,3,0,4.1,0.5
		C556,160.1,557.8,159.8,559.4,158.2z M456.6,649.3c0,0.4,0,0.7,0,1.1c7.4,3.5,16,4.9,24.3,6.2c8.2,1.3,16.8,1.5,25.3,1.8
		c10.2,0.3,20.4-0.2,30.2-3c7-2,14-3.7,21.1-5.6c0.4-0.1,0.9-0.3,1.3-0.5c4-1.8,7.9-3.6,12-5.3c4.3-1.8,9.1-3.2,13.1-5.4
		c6.7-3.8,12.7-8.1,19.2-12.1c9.1-5.7,18.1-11.4,24.9-18.8c4.9-5.3,10.6-10.4,14.6-16.1c4.6-6.6,8.2-13.6,11.5-20.6
		c5-10.6,8.7-21.6,10.4-32.8c1.6-10.1,2.6-20.2,3.6-30.4c0.7-7.6,1-15.2,1.5-22.8c0.1-1.6-0.5-2.5-2.9-2.5
		c-5.1-0.1-10.2-0.3-15.3-0.5c-1.9-0.1-3.8-0.3-5.7-0.3c-13.4,0.2-26.7,0.4-40,0.6c-5,0.1-10,0.1-15,0.2c-1.7,0-2.6,0.4-2.5,1.9
		c0.4,4.4,0.7,8.8,1,13.3c0.9,13,1.8,26.1,2.5,39.1c0.7,12.4-1.7,24.6-6.7,36.5c-2.2,5.3-4.6,10.7-7.8,15.7
		c-4.4,6.8-9.8,13.2-14.7,19.7c-6.5,8.8-13.9,17.1-24.7,23.3c-5.1,2.9-9.3,6.4-15.5,8.5c-9.2,3.2-19.1,4.1-28.6,6.1
		c-2.7,0.6-5.6,0.3-8.4,0.5c-7.4,0.4-14.8,0.9-22.1,1.4C460.8,648.5,458.7,649,456.6,649.3z"/>
	<path class="st1" d="M571,132.1c-0.9-2.4-1.8-4-2.1-5.6c-1.4-7.5-3.2-15.1-3.7-22.6c-0.7-9.5-0.7-19-0.1-28.5
		c0.3-5.4,2.2-10.8,3.7-16.2s3.5-10.8,5.1-16.2c1.1-3.6,4.7-5.8,8.4-7.6c5.9-2.9,16.7-1.5,22,1.9c10.3,6.7,12.4,15.4,9.8,24.6
		c-1.2,4.3-4.7,8.2-7.5,12.2c-3.2,4.4-6.6,8.7-10.2,13c-10.1,12.3-14.9,26.2-21,39.7C574.6,128.5,572.9,129.9,571,132.1z M571.2,127
		c0.3,0,0.7,0,1,0.1c1.9-3.6,3.7-7.2,5.6-10.7c3.5-6.9,6.4-14,10.6-20.6c6.8-10.5,14.4-20.7,21.9-31c5.4-7.5,3.1-18.7-5.7-25.1
		c-2.5-1.8-6.5-3.3-9.9-3.4c-7.6-0.2-13.7,2.8-16.7,8c-2.9,4.8-4.8,10-6.7,15.1c-3.5,9.5-4.6,19.2-4.5,29c0.1,10.1,1.1,20.2,2,30.2
		C569,121.4,570.3,124.2,571.2,127z"/>
	<path class="st1" d="M602,324.2c0.5,1.3,1,1.8,1,2.4c-0.4,9.5-0.8,19-5.1,28c-1.5,3.1-4.7,6-7.8,8.4c-3.4,2.6-11,2.1-14.8-0.6
		c-4.2-2.9-7.5-6.1-10-10.1c-2.2-3.4-2.7-6.7-3.6-10.1c-0.1-0.4,0.2-0.8,1.1-1.3c0.3,0.7,0.9,1.4,1,2.2c0.5,5.2,3.5,9.6,8.2,13.4
		c0.8,0.6,1.4,1.4,2.1,2.2c0.9,1,1.7,2.6,2.9,2.8c3.1,0.6,6.3,0.6,9.5,0.7c0.8,0,1.8-0.8,2.5-1.4c8.5-7.6,11.1-16.6,11.2-26.2
		c0-2.6,0-5.1,0.3-7.7C600.3,326.2,601.1,325.5,602,324.2z"/>
	<path class="st1" d="M639.3,323.4c0.6,1.4,1.6,2.8,1.9,4.2c1.3,7.9,2,15.9,3.9,23.7c0.8,3.2,3.7,6.2,6.2,9.1
		c3.1,3.5,10.2,3.1,14.2,0.1c7.5-5.8,9.3-13.4,13.3-20.4c0.5-0.9,1-1.7,1.6-2.5c0.4,0.1,0.8,0.2,1.2,0.3c-0.8,2-1.4,4.1-2.4,6
		c-1.8,3.5-3.7,6.9-5.6,10.3c-2.3,4.2-5.6,7.7-11.1,10c-5.9,2.4-12.1,1.1-14.9-3.4c-4.2-6.7-6.4-13.7-7-21
		c-0.3-4.3-1.6-8.6-2.4-12.9c-0.2-1-0.2-2.1-0.3-3.1C638.3,323.6,638.8,323.5,639.3,323.4z"/>
	<path class="st1" d="M617.4,183.8c-0.1-4.2,2.6-6.8,7.4-9.1c4.1-1.9,6.9-0.8,10.5,0.3s4.7,3.2,5.5,5.7c1.4,4.8-1,8.8-4.7,12.4
		c-2.6,2.6-13.1,2-15.2-0.8c-1.9-2.6-2.9-5.4-4.4-8.2C616.8,184,617.1,183.9,617.4,183.8z M638.5,184c0-4.4-0.3-4.9-3.4-6.9
		c-2.9-1.8-9.3-1.9-11.3-0.2c-3,2.5-4.1,5.4-4.1,8.7c-0.1,3.4,3,5.1,6.2,6.5c1.7,0.7,5.1,0.9,6.4,0.1
		C636,190.2,639.6,187.6,638.5,184z"/>
</g>
<g>
	<g id="Bottom">
		<path class="st2" d="M1068.2,398.4c39.2-3.9,98.5,4.9,108.1-8.3c9.7-13.2,12.3-23.3,22.9-42.2c10.6-18.9,22.8-22.3,26.5-33.1
			s2.5-15,2.5-15c-1.5-14.1-11.3-11.9-14.8-11.6c-28.7,2.5-50.3,71.1-52,70.3s-4.1-3.4-9.1-9.6s-9.8-15.1-13-20.6"/>
		<path class="st2" d="M1068.6,398.4c-39.1,4.2-95.4,24.9-107.6,14c-12.2-10.9-16.8-20.3-31-36.7s-26.9-17.2-32.7-27
			s-5.5-14.1-5.5-14.1c-1.4-14.1,8.6-13.9,12.1-14.3c28.6-3.4,63.7,59.4,65.3,58.2c1.6-1.2,3.3-4.2,7-11.2
			c3.7-7.1,6.5-16.8,8.5-22.8"/>
	</g>
	<path id="Tail" class="st2" d="M1034.6,404.7c0,0,12.7,127.2,132.2,115.2c0,0,29.8-3.5,38.5-13.9c0,0-123.5,21.5-104.5-107.7"/>
	<g id="Top">
		<path class="st2" d="M1125.4,287.7c4.1,13.9,8.8,27.7,14.2,41.1"/>
		<path class="st2" d="M984.9,343.9c8.9-39,16.4-77.9,23.8-117.7c-0.2-1.7,0.4-4.3-0.6-5.9c-3.9-6.4-11.9-5.6-18.5-5.8
			c-17.1,0-34.8,1-49.7-9.4c-15.7-11.2-21.2-32.7-16.5-51c11-12.1,29.3-7.2,43.5-12c11.3-8.8,37.2-25.8,38.7-26.8
			c22.1-14.1,48.1-15,72.4-7.3c10.5-0.2,16.1-9.3,22.7-16.7c5.8-7.4,9-15.3,14.8-22.7c5.6-9,9.4-19.6,17.7-25.5
			c0.7-0.9,4.1,0.4,5.1,2c5.1,10.5,8,23,5.1,34.3c-0.6,1.8-1.3,3.5-1.8,6.1c-6.8,21.1-24.9,34.8-44.9,38.5
			c-7.2,41.5,7.5,83.3,17.6,122.9"/>
		<path class="st2" d="M1082.5,99.5c0,0,1.9-35,0.3-47.9s-7-39.1-26.8-37.8c-7.8,0.5-16.9,10.7-15.3,26.2
			C1042.3,55.4,1079.6,76.9,1082.5,99.5z"/>
		
			<ellipse transform="matrix(0.995 -9.981488e-02 9.981488e-02 0.995 -10.871 102.7196)" class="st2" cx="1021.1" cy="160" rx="9.2" ry="9.6"/>
		<path class="st2" d="M992.2,298.2c0,0-31.9-20.9-24.5-34.4s31-5.7,31-5.7"/>
		<path class="st2" d="M1125.5,285.9c0,0,29.2-24.4,20.2-36.9c-9-12.6-31.5-2.2-31.5-2.2"/>
		<path class="st3" d="M980.9,214.2c0,0,11.9-5.1,9.3-16.1"/>
	</g>
</g>
<g>
	<g id="Bottom_1_">
		<path class="st4" d="M760.1,571.8c42.5,0.1,105.4,15.8,117.2,2.8c11.8-13.1,15.7-23.6,29.1-42.7c13.4-19.1,26.9-21.4,32.1-32.6
			c5.1-11.2,4.3-15.7,4.3-15.7c-0.1-15.3-10.8-13.9-14.6-14c-31.1-0.4-61.7,70.7-63.5,69.6s-4.1-4.1-8.8-11.2
			c-4.7-7.2-8.9-17.2-11.8-23.4"/>
		<path class="st4" d="M760.4,571.8c-42.5,0.3-105.3,16.4-117.2,3.4s-15.9-23.5-29.4-42.6s-27-21.3-32.2-32.4s-4.4-15.7-4.4-15.7
			c0-15.3,10.8-14,14.6-14.1c31.1-0.5,62.1,70.4,63.9,69.3s4-4.1,8.7-11.3s8.8-17.3,11.6-23.5"/>
	</g>
	<path id="Tail_1_" class="st5" d="M793.8,573.5c0,0,5.1,137.4-124.6,142.5c0,0-32.4,0.7-43.3-9c0,0,135.3,4.4,96-130.4"/>
	<g id="Top_1_">
		<path class="st4" d="M833.5,459.5c2.9,15.3,6.4,30.5,10.9,45.5"/>
		<path class="st4" d="M676.4,504.5c13.8-40.7,26-81.6,38.3-123.4c0-1.8,0.9-4.5,0-6.4c-3.5-7.3-12.2-7.3-19.2-8.2
			c-18.3-1.8-37.6-2.7-52.4-15.4c-15.7-13.6-19.2-37.2-12.2-56.3c13.1-11.8,32.3-4.5,48-8.2c13.1-8.2,42.8-23.6,44.6-24.5
			c25.3-12.7,53.3-10.9,78.6,0c11.4,0.9,18.3-8.2,26.2-15.4c7-7.3,11.4-15.4,18.3-22.7c7-9.1,12.2-20,21.8-25.4
			c0.9-0.9,4.4,0.9,5.2,2.7c4.4,11.8,6.1,25.4,1.7,37.2c-0.9,1.8-1.7,3.6-2.6,6.4c-9.6,21.8-30.6,34.5-52.4,36.3
			c-12.2,43.6-0.9,89.9,5.6,133.4"/>
		<path class="st4" d="M807.7,253.5c0,0,5.8-37.3,5.5-51.3s-3.4-42.6-24.7-43.4c-8.4-0.3-19.3,9.6-19.3,26.4
			C769.2,202,807,229,807.7,253.5z"/>
		<ellipse class="st5" cx="735.1" cy="311.6" rx="10" ry="10.4"/>
		<path class="st5" d="M689.1,456.4c0,0-32.1-25.8-22.7-39.4c9.4-13.6,34-2.8,34-2.8"/>
		<path class="st5" d="M833.8,457.5c0,0,34-22.9,25.7-37.3s-33.6-5.7-33.6-5.7"/>
		<path class="st6" d="M686,365.4c0,0,13.4-4.2,11.7-16.2"/>
	</g>
</g>
<g>
	<g id="Bottom_2_">
		<path class="st2" d="M453.7,313.5c34.7,4.7,84.3,23.1,95.2,14.8c10.9-8.2,15.1-15.5,27.9-28s24-12.7,29.3-20.2
			c5.3-7.6,5.1-11,5.1-11c1.4-11.1-7.5-11.3-10.6-11.8c-25.4-3.7-57.2,44.8-58.6,43.8c-1.4-1-2.9-3.4-6.1-9.1
			c-3.2-5.7-5.6-13.5-7.3-18.4"/>
		<path class="st2" d="M453.9,313.6c-34.7-4.4-87.4,0.5-95.8-10.3c-8.4-10.8-10.6-18.9-19.8-34.3c-9.1-15.4-20-18.5-23.1-27.2
			s-2.1-11.9-2.1-11.9c1.5-11.1,10.1-9,13.3-8.7c25.4,3,43.7,58.1,45.3,57.5c1.6-0.6,3.7-2.5,8.2-7.3c4.5-4.7,8.9-11.6,11.8-15.9"/>
	</g>
	<path id="Tail_2_" class="st2" d="M423.3,311.8c0,0-13.5,100.3,92.3,114.5c0,0,26.5,3.1,36-3.1c0,0-111.1-7.6-69.7-103.3"/>
	<g>
		<path class="st2" d="M405.1,223.6c-3.9,10.9-8.2,21.6-13.3,32"/>
		<path class="st2" d="M528.7,273.7c-7.3-31.2-13.2-62.4-19.1-94.2c0.2-1.3-0.3-3.4,0.6-4.6c3.6-4.9,10.7-4,16.5-3.9
			c15.1,0.7,30.9,2.1,44.2-5.5c14.2-8.2,19.3-25.1,15.5-39.7c-9.5-10-25.9-6.8-38.4-11.2c-9.9-7.4-32.6-21.9-33.9-22.8
			c-19.4-12-42.4-13.8-64.1-8.6c-9.3-0.6-14.2-8-19.8-14.1c-5-6.1-7.7-12.5-12.7-18.6c-4.8-7.4-8-15.9-15.3-20.9
			c-0.6-0.8-3.6,0.2-4.5,1.4c-4.7,8.1-7.5,17.9-5.1,27c0.5,1.4,1.1,2.8,1.5,4.9c5.7,17,21.5,28.5,39.2,32.2
			c5.7,33.1-8.1,65.7-17.7,96.7"/>
		<path class="st2" d="M446.3,76.2c0,0-1.1-27.8,0.5-38s6.9-30.7,24.4-28.9c6.9,0.7,14.8,9.1,13.1,21.3
			C482.7,42.8,449.2,58.4,446.3,76.2z"/>
		
			<ellipse transform="matrix(0.1331 -0.9911 0.9911 0.1331 307.8538 605.0214)" class="st2" cx="499.8" cy="126.5" rx="7.6" ry="8.2"/>
		<path class="st2" d="M523.1,237.1c0,0,28.7-15.3,22.3-26.3c-6.3-11-27.4-5.7-27.4-5.7"/>
		<path class="st2" d="M405,222.1c0,0-25.5-20.5-17.3-30.1s28-0.5,28-0.5"/>
		<path class="st3" d="M534.5,171.1c0,0-10.5-4.5-8-13.1"/>
	</g>
</g>
<g>
	<g id="Bottom_3_">
		<path class="st4" d="M171.2,594.9c37,0.1,91.7,18.3,102,3.1c10.3-15.2,13.7-27.2,25.4-49.2c11.7-22.1,23.4-24.7,27.9-37.6
			c4.5-12.9,3.8-18.2,3.8-18.2c-0.1-17.6-9.4-16-12.7-16.1c-27.1-0.4-53.7,81.6-55.3,80.2c-1.6-1.3-3.5-4.7-7.6-12.9
			c-4.1-8.3-7.7-19.9-10.2-27"/>
		<path class="st4" d="M171.5,594.9c-37,0.4-91.6,18.9-102,3.9s-13.7-27-25.5-49s-23.5-24.6-28.1-37.4s-3.8-18.1-3.8-18.1
			c0-17.6,9.4-16.1,12.7-16.2c27.1-0.7,54,81.1,55.6,79.9c1.6-1.2,3.5-4.8,7.6-12.9c4.1-8.3,7.7-19.9,10.1-27.1"/>
	</g>
	<path id="Tail_3_" class="st5" d="M200.6,596.9c0,0,4.4,158.5-108.5,164.3c0,0-28.2,0.9-37.7-10.5c0,0,117.8,5.1,83.6-150.3"/>
	<g id="Top_2_">
		<path class="st4" d="M107.2,465.9c-2.5,17.7-5.5,35.2-9.3,52.4"/>
		<path class="st4" d="M244.2,516.9c-12.2-46.9-23-93.9-33.8-142c0-2.1-0.8-5.2,0-7.3c3-8.4,10.6-8.5,16.7-9.5
			c16-2.2,32.7-3.3,45.6-18.1c13.6-15.8,16.6-43,10.4-65c-11.5-13.5-28.1-5-41.9-9.1c-11.4-9.3-37.4-26.9-38.9-28
			c-22.1-14.6-46.4-12.2-68.4,0.5c-9.9,1.1-16-9.3-22.9-17.6c-6.1-8.3-9.9-17.7-16.1-26.1c-6.1-10.5-10.7-22.9-19.1-29.1
			c-0.8-1-3.8,1.1-4.6,3.1c-3.8,13.6-5.2,29.3-1.4,42.9c0.8,2.1,1.5,4.2,2.3,7.2c8.5,25,26.8,39.6,45.8,41.6
			c10.8,50.3,1.1,103.7-4.3,153.9"/>
		<path class="st4" d="M128.9,228.2c0,0-5.2-42.9-5-59.1s2.7-49.1,21.3-50.2c7.3-0.4,16.8,11,16.9,30.3S129.3,199.9,128.9,228.2z"/>
		<ellipse class="st5" cx="192.3" cy="294.7" rx="8.7" ry="11.9"/>
		<path class="st5" d="M232.9,461.4c0,0,27.8-29.9,19.6-45.6c-8.2-15.7-29.6-2.9-29.6-2.9"/>
		<path class="st5" d="M107,463.6c0,0-29.7-26.3-22.6-42.8c7.1-16.7,29.2-6.8,29.2-6.8"/>
		<path class="st6" d="M235.2,356.4c0,0-11.7-4.8-10.3-18.7"/>
	</g>
</g>
</svg>
